<svg t="1607312923466" class="icon" viewBox="0 0 1024 1024" version="1.1" xmlns="http://www.w3.org/2000/svg" p-id="10529" width="200" height="200"><path d="M771.997 304.329l95.97-26.64c22.364-6.208 27.658-29.956 8.117-49.497l-13.975-13.975-45.255-45.255-14.729-14.729c-19.541-19.541-43.242-14.2-49.403 8.21l-26.612 96.796 45.887 45.09z m134.727-134.727c12.497-12.497 12.497-32.758 0-45.255s-32.758-12.497-45.255 0l-22.627 22.627 45.255 45.255 22.627-22.627zM476.5 426.5c12.16 0 23.923 1.696 35.068 4.863l96.499-96.499C569.616 311.783 524.611 298.5 476.5 298.5c-141.385 0-256 114.615-256 256s114.615 256 256 256 256-114.615 256-256c0-46.842-12.591-90.738-34.557-128.509l-97.286 97.286A128.272 128.272 0 0 1 604.5 554.5c0 70.692-57.308 128-128 128s-128-57.308-128-128 57.308-128 128-128z m383.757-103.265L749.669 374.8l-5.031 5.031C777.424 430.057 796.5 490.046 796.5 554.5c0 176.731-143.269 320-320 320s-320-143.269-320-320 143.269-320 320-320c65.704 0 126.774 19.814 177.585 53.776l4.528-4.531 51.63-111.493C642.195 130.549 562.158 106.5 476.5 106.5c-247.424 0-448 200.576-448 448s200.576 448 448 448 448-200.577 448-448c0-84.62-23.469-163.755-64.243-231.265z m-157.18-40.496L490.222 495.594l-0.036-0.036-22.628 22.628 0.036 0.036-12.465 12.465c-6.523 5.858-10.629 14.355-10.629 23.813 0 17.673 14.327 32 32 32a31.85 31.85 0 0 0 19.299-6.478 32.076 32.076 0 0 0 3.631-3.127l248.902-248.902-45.255-45.254z" p-id="10530" fill="#1296db"></path></svg>