<svg t="1608297337904" class="icon" viewBox="0 0 1024 1024" version="1.1" xmlns="http://www.w3.org/2000/svg" p-id="2461" width="64" height="64"><path d="M238.933333 170.666667h170.666667a68.266667 68.266667 0 0 1 68.266667 68.266666v170.666667a68.266667 68.266667 0 0 1-68.266667 68.266667H238.933333a68.266667 68.266667 0 0 1-68.266666-68.266667V238.933333a68.266667 68.266667 0 0 1 68.266666-68.266666z m0 51.2a17.066667 17.066667 0 0 0-17.066666 17.066666v170.666667a17.066667 17.066667 0 0 0 17.066666 17.066667h170.666667a17.066667 17.066667 0 0 0 17.066667-17.066667V238.933333a17.066667 17.066667 0 0 0-17.066667-17.066666H238.933333zM238.933333 546.133333h170.666667a68.266667 68.266667 0 0 1 68.266667 68.266667v170.666667a68.266667 68.266667 0 0 1-68.266667 68.266666H238.933333a68.266667 68.266667 0 0 1-68.266666-68.266666v-170.666667a68.266667 68.266667 0 0 1 68.266666-68.266667z m0 51.2a17.066667 17.066667 0 0 0-17.066666 17.066667v170.666667a17.066667 17.066667 0 0 0 17.066666 17.066666h170.666667a17.066667 17.066667 0 0 0 17.066667-17.066666v-170.666667a17.066667 17.066667 0 0 0-17.066667-17.066667H238.933333zM614.4 648.533333h170.666667a68.266667 68.266667 0 0 1 68.266666 68.266667v68.266667a68.266667 68.266667 0 0 1-68.266666 68.266666h-170.666667a68.266667 68.266667 0 0 1-68.266667-68.266666v-68.266667a68.266667 68.266667 0 0 1 68.266667-68.266667z m0 51.2a17.066667 17.066667 0 0 0-17.066667 17.066667v68.266667a17.066667 17.066667 0 0 0 17.066667 17.066666h170.666667a17.066667 17.066667 0 0 0 17.066666-17.066666v-68.266667a17.066667 17.066667 0 0 0-17.066666-17.066667h-170.666667zM614.4 170.666667h170.666667a68.266667 68.266667 0 0 1 68.266666 68.266666v273.066667a68.266667 68.266667 0 0 1-68.266666 68.266667h-170.666667a68.266667 68.266667 0 0 1-68.266667-68.266667V238.933333a68.266667 68.266667 0 0 1 68.266667-68.266666z m0 51.2a17.066667 17.066667 0 0 0-17.066667 17.066666v273.066667a17.066667 17.066667 0 0 0 17.066667 17.066667h170.666667a17.066667 17.066667 0 0 0 17.066666-17.066667V238.933333a17.066667 17.066667 0 0 0-17.066666-17.066666h-170.666667z" fill="#1296db" p-id="2462"></path></svg>