<svg t="1608450857120" class="icon" viewBox="0 0 1024 1024" version="1.1" xmlns="http://www.w3.org/2000/svg" p-id="2274" width="48" height="48"><path d="M198.776471 324.352m15.058823 0l105.411765 0q15.058824 0 15.058823 15.058824l0 75.294117q0 15.058824-15.058823 15.058824l-105.411765 0q-15.058824 0-15.058823-15.058824l0-75.294117q0-15.058824 15.058823-15.058824Z" fill="#1296db" p-id="2275"></path><path d="M213.835294 188.822588h481.882353a15.058824 15.058824 0 0 1 15.058824 15.058824v60.235294a15.058824 15.058824 0 0 1-15.058824 15.058823h-481.882353a15.058824 15.058824 0 0 1-15.058823-15.058823v-60.235294a15.058824 15.058824 0 0 1 15.058823-15.058824z" fill="#1296db" p-id="2276"></path><path d="M379.482353 324.352m15.058823 0l105.411765 0q15.058824 0 15.058824 15.058824l0 75.294117q0 15.058824-15.058824 15.058824l-105.411765 0q-15.058824 0-15.058823-15.058824l0-75.294117q0-15.058824 15.058823-15.058824Z" fill="#1296db" p-id="2277"></path><path d="M560.188235 324.352m15.058824 0l105.411765 0q15.058824 0 15.058823 15.058824l0 75.294117q0 15.058824-15.058823 15.058824l-105.411765 0q-15.058824 0-15.058824-15.058824l0-75.294117q0-15.058824 15.058824-15.058824Z" fill="#1296db" p-id="2278"></path><path d="M198.776471 474.940235m15.058823 0l105.411765 0q15.058824 0 15.058823 15.058824l0 75.294117q0 15.058824-15.058823 15.058824l-105.411765 0q-15.058824 0-15.058823-15.058824l0-75.294117q0-15.058824 15.058823-15.058824Z" fill="#1296db" p-id="2279"></path><path d="M394.541176 474.940235h94.780236a15.058824 15.058824 0 0 1 13.131294 22.422589l-46.486588 82.974117H394.541176a15.058824 15.058824 0 0 1-15.058823-15.058823v-75.294118a15.058824 15.058824 0 0 1 15.058823-15.058824z" fill="#1296db" p-id="2280"></path><path d="M198.776471 625.528471m15.058823 0l105.411765 0q15.058824 0 15.058823 15.058823l0 75.294118q0 15.058824-15.058823 15.058823l-105.411765 0q-15.058824 0-15.058823-15.058823l0-75.294118q0-15.058824 15.058823-15.058823Z" fill="#1296db" p-id="2281"></path><path d="M394.541176 595.410824h45.266824l-5.240471 90.352941H394.541176a15.058824 15.058824 0 0 1-15.058823-15.058824v-60.235294a15.058824 15.058824 0 0 1 15.058823-15.058823z" fill="#1296db" p-id="2282"></path><path d="M734.268235 63.608471c59.617882 0 108.649412 46.938353 112.986353 106.917647l0.240941 4.21647 0.075295 4.23153v335.209411l-14.772706-12.122353c-122.503529-100.532706-233.200941-100.532706-335.600942-0.527058-99.056941 96.737882-89.178353 206.682353 31.457883 333.748706l5.225412 5.466352 20.359529 20.736H178.251294c-59.602824 0-108.634353-46.938353-112.971294-106.917647l-0.225882-4.21647-0.090353-4.23153V178.974118c0-60.611765 46.019765-110.622118 104.990117-115.049412l4.126118-0.240941 4.171294-0.075294h556.032z m-556.016941 88.967529c-12.559059 0-23.190588 9.321412-25.298823 21.504l-0.301177 2.469647-0.105412 2.424471v567.145411c0 12.995765 9.155765 23.838118 20.961883 25.99153l2.394353 0.316235 2.349176 0.105412h219.407059l-1.159529-7.017412c-21.744941-134.189176-2.364235-235.971765 58.759529-304.700235l4.065882-4.442353c64.406588-68.879059 162.816-92.702118 294.294589-72.086588l6.369882 1.039058V178.974118c0-13.763765-10.24-24.997647-23.235765-26.277647l-2.469647-0.120471H178.251294z" fill="#1296db" p-id="2283"></path><path d="M661.157647 355.312941c164.141176 0 297.110588 135.68 297.110588 302.968471 0 167.273412-132.969412 302.953412-297.110588 302.953412s-297.110588-135.68-297.110588-302.953412c0-167.288471 132.969412-302.968471 297.110588-302.968471z m0 88.96753c-115.681882 0-209.543529 95.774118-209.543529 213.985882 0 118.241882 93.861647 214.000941 209.543529 214.000941 115.681882 0 209.543529-95.774118 209.543529-213.985882 0-118.241882-93.861647-214.000941-209.543529-214.000941z" fill="#1296db" p-id="2284"></path><path d="M688.203294 792.064v-30.177882a15.058824 15.058824 0 0 1 15.058824-15.058824h48.700235a15.058824 15.058824 0 0 0 15.058823-15.058823v-19.983059a15.058824 15.058824 0 0 0-15.058823-15.058824H702.945882a14.757647 14.757647 0 0 1-14.757647-14.757647v-14.426353a0.798118 0.798118 0 0 1 0.798118-0.798117h62.945882a15.058824 15.058824 0 0 0 15.058824-15.058824V631.717647a15.058824 15.058824 0 0 0-15.058824-15.058823H715.595294l47.299765-88.545883a15.058824 15.058824 0 0 0-13.281883-22.151529h-27.25647a15.058824 15.058824 0 0 0-13.387294 8.146823l-47.811765 92.611765-47.811765-92.611765a15.058824 15.058824 0 0 0-13.387294-8.146823h-27.25647a15.058824 15.058824 0 0 0-13.281883 22.151529l47.299765 88.545883h-35.900235a15.058824 15.058824 0 0 0-15.058824 15.058823v19.983059a15.058824 15.058824 0 0 0 15.058824 15.058823h62.494117a0.798118 0.798118 0 0 1 0.798118 0.798118v14.426353a14.757647 14.757647 0 0 1-14.757647 14.757647h-48.534588a15.058824 15.058824 0 0 0-15.058824 15.058824v19.983058a15.058824 15.058824 0 0 0 15.058824 15.058824h48.233411a15.058824 15.058824 0 0 1 15.058824 15.058823v30.177883a15.058824 15.058824 0 0 0 15.058824 15.058823H673.129412a15.058824 15.058824 0 0 0 15.058823-15.058823z" fill="#1296db" p-id="2285"></path></svg>