<svg t="1608297551405" class="icon" viewBox="0 0 1024 1024" version="1.1" xmlns="http://www.w3.org/2000/svg" p-id="928" width="200" height="200"><path d="M425.4 822.5c-13.7 17.8-35.1 29.5-59.3 29.5-41.1 0-74.5-33.4-74.5-74.5S325 703 366.1 703c24.4 0 46 11.8 59.7 30 0.6 0.7 1.7 1.8 1.7-1.7V598.4c0-2-1.3-3.6-3.6-3.6H291c-3.4 0-2.4-1.1-1.7-1.7 18.2-13.5 30-35.3 30-59.7 0-41.1-33.4-74.5-74.5-74.5s-74.5 33.4-74.5 74.5c0 24.2 11.5 45.6 29.5 59.3 1 0.7 0.6 2-2 2H70.5c-3.9 0-6.5 2.4-6.5 6.5v270.5c0 47.5 39 86.5 86.5 86.5H421c5 0 6.5-3.6 6.5-6.5V824.5c0-2.7-1.3-2.9-2.1-2z" p-id="929" fill="#1296db"></path><path d="M784.5 594.7c2.9 0 6.5 1.4 6.5 6.5v270.5c0 47.5-39 86.5-86.5 86.5H434c-4 0-6.5-2.5-6.5-6.5V824.6c0-1.8-0.6-2.5-1.2-2.5-0.2 0-0.6 0.2-0.8 0.5-13.7 17.8-35.1 29.5-59.3 29.5-41.1 0-74.5-33.4-74.5-74.5s33.4-74.5 74.5-74.5c24.4 0 46 11.8 59.7 30 0.2 0.4 0.6 0.7 1 0.7s0.7-0.6 0.7-2.4v-133c0-2.4 1.5-3.6 3.6-3.6h132.9c3.4 0 2.4 1.1 1.7 1.7-18.2 13.5-30 35.2-30 59.7 0 41.1 33.4 74.5 74.5 74.5s74.5-33.4 74.5-74.5c0-24.2-11.5-45.6-29.4-59.3-1-0.7-0.6-2 2-2-0.1-0.2 124.1-0.2 127.1-0.2z m-5.1 11.5h-99c10.2 14.4 15.8 31.6 15.8 49.8 0 47.4-38.6 86.1-86.1 86.1-47.4 0-86.1-38.6-86.1-86.1 0-18.2 5.6-35.4 15.8-49.8H439v124.9c0 11.1-8 13.9-12.2 13.9-2.3 0-6.7-0.7-10.2-5.3-12-16-30.4-25.3-50.4-25.3-34.7 0-63 28.3-63 63s28.3 63 63 63c19.8 0 38-9 50.2-24.8 2.4-3.2 6.1-5 10-5 6.2 0 12.7 4.9 12.7 14v122.1h265.4c41.4 0 75-33.6 75-75V606.2zM543.4 294.7c6.4-21.5 22.5-39.8 45.2-48.4 38.5-14.5 81.5 5.1 95.9 43.6 14.5 38.5-5.1 81.5-43.6 95.9-22.8 8.6-47.2 5.2-66.3-7-0.8-0.5-2.3-1.2-1 2.1 0 0 45.9 122.4 46.6 124.4 0.7 1.9 2.5 3 4.6 2.1L749.1 461c3.3-1.2 2.6 0.2 2.1 1-12.2 19.1-15.6 43.5-7 66.3 14.5 38.5 57.4 58.1 95.9 43.6 38.5-14.5 58.1-57.4 43.6-95.9-8.4-22.7-26.9-38.7-48.4-45.2-1.1-0.4-1.3-1.7 1.2-2.6l119.1-44.7c3.7-1.4 5.2-4.5 3.8-8.3-1.3-3.9-94.8-253.4-94.8-253.4-16.8-44.6-66.9-67.4-111.5-50.6l-253.3 95c-4.8 1.8-4.8 5.7-3.8 8.3 1.1 2.7 44.7 119.1 44.7 119.1 1 2.4 2.4 2.2 2.7 1.1zM420.9 231.1c4 0 6.5 2.5 6.5 6.5v127.2c0 1.8 0.6 2.5 1.2 2.5 0.4 0 0.6-0.1 0.8-0.5 13.7-17.8 35.1-29.4 59.3-29.4 41.1 0 74.5 33.4 74.5 74.5s-33.4 74.5-74.5 74.5c-24.4 0-46-11.8-59.7-29.8-0.2-0.4-0.6-0.8-1-0.8s-0.7 0.6-0.7 2.4v132.9c0 2.4-1.5 3.6-3.6 3.6H290.8c-3.4 0-2.4-1.1-1.7-1.7 18.2-13.5 30-35.3 30-59.7 0-41.1-33.4-74.5-74.5-74.5s-74.5 33.4-74.5 74.5c0 24.2 11.5 45.6 29.5 59.3 1 0.7 0.6 2-2 2H70.4c-2.9 0-6.5-1.4-6.5-6.5V317.6c0-47.7 39-86.5 86.5-86.5h270.5z m-5 11.5H150.5c-41.4 0-75 33.6-75 75V583h99c-10.2-14.4-15.8-31.6-15.8-49.8 0-47.4 38.6-86.1 86.1-86.1s86.1 38.6 86.1 86.1c0 18.2-5.6 35.4-15.8 49.8H416V458.2c0-11.1 8-13.9 12.2-13.9 2.3 0 6.7 0.7 10.2 5.3 12 16 30.4 25.3 50.4 25.3 34.7 0 63-28.3 63-63s-28.3-63-63-63c-19.7 0-38 9-50.2 24.8-2.4 3.2-6.1 5-10 5-6.2 0-12.7-4.9-12.7-14V242.6z" p-id="930" fill="#1296db"></path></svg>