<?xml version="1.0" encoding="utf-8"?>
<svg version="1.1" xmlns:xlink="http://www.w3.org/1999/xlink" width="16px" height="16px" xmlns="http://www.w3.org/2000/svg">
  <defs>
    <mask fill="white" id="clip194">
      <path d="M 0 8  C 0 5.75999999999999  0.880000000000109 3.75999999999999  2.31999999999994 2.31999999999994  C 3.75999999999999 0.880000000000109  5.75999999999999 0  8 0  C 12.48 0  16 3.51999999999998  16 8  C 16 12.48  12.48 16  8 16  C 3.51999999999998 16  0 12.48  0 8  Z " fill-rule="evenodd" />
    </mask>
  </defs>
  <g transform="matrix(1 0 0 1 -744 -2024 )">
    <path d="M 0 8  C 0 5.75999999999999  0.880000000000109 3.75999999999999  2.31999999999994 2.31999999999994  C 3.75999999999999 0.880000000000109  5.75999999999999 0  8 0  C 12.48 0  16 3.51999999999998  16 8  C 16 12.48  12.48 16  8 16  C 3.51999999999998 16  0 12.48  0 8  Z " fill-rule="nonzero" fill="#ffffff" stroke="none" transform="matrix(1 0 0 1 744 2024 )" />
    <path d="M 0 8  C 0 5.75999999999999  0.880000000000109 3.75999999999999  2.31999999999994 2.31999999999994  C 3.75999999999999 0.880000000000109  5.75999999999999 0  8 0  C 12.48 0  16 3.51999999999998  16 8  C 16 12.48  12.48 16  8 16  C 3.51999999999998 16  0 12.48  0 8  Z " stroke-width="2" stroke="#02a7f0" fill="none" transform="matrix(1 0 0 1 744 2024 )" mask="url(#clip194)" />
  </g>
</svg>