<?xml version="1.0" encoding="utf-8"?>
<svg version="1.1" xmlns:xlink="http://www.w3.org/1999/xlink" width="50px" height="50px" xmlns="http://www.w3.org/2000/svg">
  <g transform="matrix(1 0 0 1 -720 -4681 )">
    <path d="M 745 4681  C 759 4681  770 4692  770 4706  C 770 4720  759 4731  745 4731  C 731 4731  720 4720  720 4706  C 720 4692  731 4681  745 4681  Z " fill-rule="nonzero" fill="#ffffff" stroke="none" />
    <path d="M 745 4681.5  C 758.72 4681.5  769.5 4692.28  769.5 4706  C 769.5 4719.72  758.72 4730.5  745 4730.5  C 731.28 4730.5  720.5 4719.72  720.5 4706  C 720.5 4692.28  731.28 4681.5  745 4681.5  Z " stroke-width="1" stroke="#aaaaaa" fill="none" />
  </g>
</svg>