<svg t="1608623802759" class="icon" viewBox="0 0 1024 1024" version="1.1" xmlns="http://www.w3.org/2000/svg" p-id="1564" width="64" height="64"><path d="M196.608 348.16h206.336l65.024 120.832 62.464 75.776L660.992 348.16H890.88l69.632 198.656-30.72 106.496-39.936-1.024 10.752-90.624-26.112-68.608-5.12 158.208-32.768 299.52H783.36l-3.584-274.432h-30.208l-50.688 275.968h-59.392l18.432-301.568V501.76l-131.584 112.64-102.912-73.216-3.584 110.08-34.816 301.568H325.12v-275.968h-30.208L240.64 950.784H187.392l20.48-299.52-5.12-137.216-77.312 93.184v40.448h25.088v207.872H69.632v-207.872h25.088v-41.984l-17.92-7.68L196.608 348.16z m607.744-225.28c-47.104-28.672-108.544-13.312-137.216 33.792-28.672 47.104-13.312 108.544 33.792 137.216s108.544 13.312 137.216-33.792c28.672-47.104 13.312-108.544-33.792-137.216zM256 122.88c47.104-28.672 108.544-13.312 137.216 33.792 28.672 47.104 13.312 108.544-33.792 137.216S250.88 307.2 222.208 260.096C194.048 212.992 208.896 151.552 256 122.88z" fill="#1296db" p-id="1565"></path></svg>