<svg t="1608623926549" class="icon" viewBox="0 0 1024 1024" version="1.1" xmlns="http://www.w3.org/2000/svg" p-id="2157" width="64" height="64"><path d="M382.976 380.928c105.2672 0 190.464-85.1968 190.464-190.464V0h-190.464c-105.2672 0-190.464 85.1968-190.464 190.464s85.1968 190.464 190.464 190.464z" p-id="2158" fill="#1296db"></path><path d="M921.3952 112.2304H702.6688c-56.32 0-102.6048 46.08-102.6048 102.6048V303.104l-0.4096-0.2048v112.64c-32.9728-14.336-69.4272-22.3232-107.7248-22.3232H271.9744C123.2896 393.216 2.6624 513.8432 2.6624 662.528v91.9552C2.6624 903.3728 123.2896 1024 271.9744 1024h219.9552c148.6848 0 269.312-120.6272 269.312-269.312v-91.9552c0-88.4736-42.5984-166.912-108.3392-215.8592l47.3088-27.2384H921.1904c56.32 0 102.6048-46.08 102.6048-102.6048V215.04c0.2048-56.7296-45.8752-102.8096-102.4-102.8096zM430.8992 526.336L372.736 833.3312 314.7776 526.336h1.8432l58.1632-100.5568 58.1632 100.5568h-2.048z m265.6256-227.1232c-21.0944 0-38.0928-16.9984-38.0928-38.0928s16.9984-38.0928 38.0928-38.0928 38.0928 16.9984 38.0928 38.0928-16.9984 38.0928-38.0928 38.0928z m120.6272 0c-21.0944 0-38.0928-16.9984-38.0928-38.0928s16.9984-38.0928 38.0928-38.0928 38.0928 16.9984 38.0928 38.0928-16.9984 38.0928-38.0928 38.0928z m120.6272 0c-21.0944 0-38.0928-16.9984-38.0928-38.0928s16.9984-38.0928 38.0928-38.0928 38.0928 16.9984 38.0928 38.0928-17.2032 38.0928-38.0928 38.0928z" p-id="2159" fill="#1296db"></path></svg>