<?xml version="1.0" encoding="utf-8"?>
<svg version="1.1" xmlns:xlink="http://www.w3.org/1999/xlink" width="15px" height="24px" xmlns="http://www.w3.org/2000/svg">
  <g transform="matrix(1 0 0 1 -90 -2849 )">
    <path d="M 14.7422680412371 1.44288577154308  C 14.914089347079 1.60320641282565  15 1.7875751503006  15 1.99599198396794  C 15 2.20440881763527  14.914089347079 2.38877755511022  14.7422680412371 2.54909819639279  L 4.61340206185567 12  L 14.7422680412371 21.4509018036072  C 14.914089347079 21.6112224448898  15 21.7955911823647  15 22.0040080160321  C 15 22.2124248496994  14.914089347079 22.3967935871743  14.7422680412371 22.5571142284569  L 13.4536082474227 23.7595190380762  C 13.2817869415808 23.9198396793587  13.0841924398625 24  12.860824742268 24  C 12.6374570446735 24  12.4398625429553 23.9198396793587  12.2680412371134 23.7595190380762  L 0.257731958762887 12.5531062124248  C 0.0859106529209623 12.3927855711423  0 12.2084168336673  0 12  C 0 11.7915831663327  0.0859106529209623 11.6072144288577  0.257731958762887 11.4468937875752  L 12.2680412371134 0.240480961923848  C 12.4398625429553 0.0801603206412818  12.6374570446735 0  12.860824742268 0  C 13.0841924398625 0  13.2817869415808 0.0801603206412818  13.4536082474227 0.240480961923848  L 14.7422680412371 1.44288577154308  Z " fill-rule="nonzero" fill="#000000" stroke="none" transform="matrix(1 0 0 1 90 2849 )" />
  </g>
</svg>