<?xml version="1.0" encoding="utf-8"?>
<svg version="1.1" xmlns:xlink="http://www.w3.org/1999/xlink" width="14px" height="14px" xmlns="http://www.w3.org/2000/svg">
  <g transform="matrix(1 0 0 1 -267 -3011 )">
    <path d="M 274 3012  C 277.36 3012  280 3014.64  280 3018  C 280 3021.36  277.36 3024  274 3024  C 270.64 3024  268 3021.36  268 3018  C 268 3014.64  270.64 3012  274 3012  Z " fill-rule="nonzero" fill="#ffffff" stroke="none" />
    <path d="M 274 3012  C 277.36 3012  280 3014.64  280 3018  C 280 3021.36  277.36 3024  274 3024  C 270.64 3024  268 3021.36  268 3018  C 268 3014.64  270.64 3012  274 3012  Z " stroke-width="2" stroke="#d7d7d7" fill="none" />
  </g>
</svg>