<?xml version="1.0" encoding="utf-8"?>
<svg version="1.1" xmlns:xlink="http://www.w3.org/1999/xlink" width="17px" height="18px" xmlns="http://www.w3.org/2000/svg">
  <g transform="matrix(1 0 0 1 -321 -3347 )">
    <path d="M 329.5 3348  C 333.7 3348  337 3351.52  337 3356  C 337 3360.48  333.7 3364  329.5 3364  C 325.3 3364  322 3360.48  322 3356  C 322 3351.52  325.3 3348  329.5 3348  Z " fill-rule="nonzero" fill="#ffffff" stroke="none" fill-opacity="0.2" />
    <path d="M 329.5 3348  C 333.7 3348  337 3351.52  337 3356  C 337 3360.48  333.7 3364  329.5 3364  C 325.3 3364  322 3360.48  322 3356  C 322 3351.52  325.3 3348  329.5 3348  Z " stroke-width="2" stroke="#02a7f0" fill="none" />
  </g>
</svg>