<?xml version="1.0" encoding="utf-8"?>
<svg version="1.1" xmlns:xlink="http://www.w3.org/1999/xlink" width="17px" height="18px" xmlns="http://www.w3.org/2000/svg">
  <g transform="matrix(1 0 0 1 -395 -3347 )">
    <path d="M 403.5 3348.5  C 407.42 3348.5  410.5 3351.8  410.5 3356  C 410.5 3360.2  407.42 3363.5  403.5 3363.5  C 399.58 3363.5  396.5 3360.2  396.5 3356  C 396.5 3351.8  399.58 3348.5  403.5 3348.5  Z " fill-rule="nonzero" fill="#ffffff" stroke="none" fill-opacity="0.2" />
    <path d="M 403.5 3348  C 407.7 3348  411 3351.52  411 3356  C 411 3360.48  407.7 3364  403.5 3364  C 399.3 3364  396 3360.48  396 3356  C 396 3351.52  399.3 3348  403.5 3348  Z " stroke-width="2" stroke="#000000" fill="none" stroke-opacity="0.4" />
  </g>
</svg>