<?xml version="1.0" encoding="utf-8"?>
<svg version="1.1" xmlns:xlink="http://www.w3.org/1999/xlink" width="18px" height="13px" xmlns="http://www.w3.org/2000/svg">
  <g transform="matrix(1 0 0 1 -138 -3732 )">
    <path d="M 2.48102678571429 10.9095052083333  C 2.54129464285714 10.9602864583333  2.57142857142857 11.0251736111111  2.57142857142857 11.1041666666667  L 2.57142857142857 12.7291666666667  C 2.57142857142857 12.8081597222222  2.54129464285714 12.873046875  2.48102678571429 12.923828125  C 2.42075892857143 12.974609375  2.34375 13  2.25 13  L 0.321428571428571 13  C 0.227678571428571 13  0.150669642857143 12.974609375  0.0904017857142857 12.923828125  C 0.0301339285714286 12.873046875  0 12.8081597222222  0 12.7291666666667  L 0 11.1041666666667  C 0 11.0251736111111  0.0301339285714286 10.9602864583333  0.0904017857142857 10.9095052083333  C 0.150669642857143 10.8587239583333  0.227678571428571 10.8333333333333  0.321428571428571 10.8333333333333  L 2.25 10.8333333333333  C 2.34375 10.8333333333333  2.42075892857143 10.8587239583333  2.48102678571429 10.9095052083333  Z M 6.33816964285714 9.826171875  C 6.3984375 9.876953125  6.42857142857143 9.94184027777778  6.42857142857143 10.0208333333333  L 6.42857142857143 12.7291666666667  C 6.42857142857143 12.8081597222222  6.3984375 12.873046875  6.33816964285714 12.923828125  C 6.27790178571429 12.974609375  6.20089285714286 13  6.10714285714286 13  L 4.17857142857143 13  C 4.08482142857143 13  4.0078125 12.974609375  3.94754464285714 12.923828125  C 3.88727678571429 12.873046875  3.85714285714286 12.8081597222222  3.85714285714286 12.7291666666667  L 3.85714285714286 10.0208333333333  C 3.85714285714286 9.94184027777778  3.88727678571429 9.876953125  3.94754464285714 9.826171875  C 4.0078125 9.775390625  4.08482142857143 9.75  4.17857142857143 9.75  L 6.10714285714286 9.75  C 6.20089285714286 9.75  6.27790178571429 9.775390625  6.33816964285714 9.826171875  Z M 10.1953125 7.65950520833333  C 10.2555803571429 7.71028645833333  10.2857142857143 7.77517361111111  10.2857142857143 7.85416666666667  L 10.2857142857143 12.7291666666667  C 10.2857142857143 12.8081597222222  10.2555803571429 12.873046875  10.1953125 12.923828125  C 10.1350446428571 12.974609375  10.0580357142857 13  9.96428571428572 13  L 8.03571428571429 13  C 7.94196428571429 13  7.86495535714286 12.974609375  7.8046875 12.923828125  C 7.74441964285714 12.873046875  7.71428571428571 12.8081597222222  7.71428571428571 12.7291666666667  L 7.71428571428571 7.85416666666667  C 7.71428571428571 7.77517361111111  7.74441964285714 7.71028645833333  7.8046875 7.65950520833333  C 7.86495535714286 7.60872395833333  7.94196428571429 7.58333333333333  8.03571428571429 7.58333333333333  L 9.96428571428572 7.58333333333333  C 10.0580357142857 7.58333333333333  10.1350446428571 7.60872395833333  10.1953125 7.65950520833333  Z M 14.0524553571429 4.40950520833333  C 14.1127232142857 4.46028645833333  14.1428571428571 4.52517361111111  14.1428571428571 4.60416666666667  L 14.1428571428571 12.7291666666667  C 14.1428571428571 12.8081597222222  14.1127232142857 12.873046875  14.0524553571429 12.923828125  C 13.9921875 12.974609375  13.9151785714286 13  13.8214285714286 13  L 11.8928571428571 13  C 11.7991071428571 13  11.7220982142857 12.974609375  11.6618303571429 12.923828125  C 11.6015625 12.873046875  11.5714285714286 12.8081597222222  11.5714285714286 12.7291666666667  L 11.5714285714286 4.60416666666667  C 11.5714285714286 4.52517361111111  11.6015625 4.46028645833333  11.6618303571429 4.40950520833333  C 11.7220982142857 4.35872395833333  11.7991071428571 4.33333333333333  11.8928571428571 4.33333333333333  L 13.8214285714286 4.33333333333333  C 13.9151785714286 4.33333333333333  13.9921875 4.35872395833333  14.0524553571429 4.40950520833333  Z M 17.9095982142857 0.076171875  C 17.9698660714286 0.126953125  18 0.191840277777776  18 0.270833333333334  L 18 12.7291666666667  C 18 12.8081597222222  17.9698660714286 12.873046875  17.9095982142857 12.923828125  C 17.8493303571429 12.974609375  17.7723214285714 13  17.6785714285714 13  L 15.75 13  C 15.65625 13  15.5792410714286 12.974609375  15.5189732142857 12.923828125  C 15.4587053571429 12.873046875  15.4285714285714 12.8081597222222  15.4285714285714 12.7291666666667  L 15.4285714285714 0.270833333333334  C 15.4285714285714 0.191840277777776  15.4587053571429 0.126953125  15.5189732142857 0.076171875  C 15.5792410714286 0.025390625  15.65625 0  15.75 0  L 17.6785714285714 0  C 17.7723214285714 0  17.8493303571429 0.025390625  17.9095982142857 0.076171875  Z " fill-rule="nonzero" fill="#ffffff" stroke="none" transform="matrix(1 0 0 1 138 3732 )" />
  </g>
</svg>