<?xml version="1.0" encoding="utf-8"?>
<svg version="1.1" xmlns:xlink="http://www.w3.org/1999/xlink" width="20px" height="13px" xmlns="http://www.w3.org/2000/svg">
  <g transform="matrix(1 0 0 1 -167 -4519 )">
    <path d="M 10.9470468431772 12.3150537634409  C 10.4514596062458 12.7716845878136  10.1357773251867 13  10 13  C 9.86422267481331 13  9.54854039375424 12.7716845878136  9.05295315682281 12.3150537634409  C 8.55736591989138 11.8584229390681  8.30957230142566 11.5679808841099  8.30957230142566 11.4437275985663  C 8.30957230142566 11.2449223416965  8.52172437202987 11.0771804062127  8.94602851323829 10.9405017921147  C 9.37033265444671 10.8038231780167  9.72165648336728 10.7354838709677  10 10.7354838709677  C 10.2783435166327 10.7354838709677  10.6296673455533 10.8038231780167  11.0539714867617 10.9405017921147  C 11.4782756279701 11.0771804062127  11.6904276985743 11.2449223416965  11.6904276985743 11.4437275985663  C 11.6904276985743 11.5679808841099  11.4426340801086 11.8584229390681  10.9470468431772 12.3150537634409  Z M 13.7016293279022 9.77562724014337  C 13.1890699253225 10.2415770609319  12.8716904276986 10.4745519713262  12.7494908350305 10.4745519713262  C 12.7359131025119 10.4745519713262  12.6001357773252 10.3968936678614  12.3421588594705 10.2415770609319  C 12.0841819416157 10.0862604540024  11.7396469789545 9.93094384707288  11.3085539714868 9.77562724014337  C 10.877460964019 9.62031063321386  10.4412763068568 9.5426523297491  10 9.5426523297491  C 9.55872369314325 9.5426523297491  9.12253903598099 9.62031063321386  8.69144602851324 9.77562724014337  C 8.26035302104549 9.93094384707288  7.91751527494908 10.0862604540024  7.66293279022403 10.2415770609319  C 7.40835030549898 10.3968936678614  7.27087576374745 10.4745519713262  7.25050916496945 10.4745519713262  C 7.12830957230143 10.4745519713262  6.81093007467753 10.2415770609319  6.29837067209776 9.77562724014337  C 5.78581126951799 9.30967741935484  5.5295315682281 9.02078853046595  5.5295315682281 8.9089605734767  C 5.5295315682281 8.82819593787336  5.56347589952478 8.75675029868578  5.63136456211813 8.69462365591398  C 6.16089613034623 8.21624850657109  6.82620502376103 7.84038231780167  7.62729124236253 7.56702508960574  C 8.42837746096402 7.2936678614098  9.21928038017651 7.15698924731183  10 7.15698924731183  C 10.7807196198235 7.15698924731183  11.571622539036 7.2936678614098  12.3727087576375 7.56702508960574  C 13.173794976239 7.84038231780167  13.8391038696538 8.21624850657109  14.3686354378819 8.69462365591398  C 14.4365241004752 8.75675029868578  14.4704684317719 8.82819593787336  14.4704684317719 8.9089605734767  C 14.4704684317719 9.02078853046595  14.214188730482 9.30967741935484  13.7016293279022 9.77562724014337  Z M 16.4663951120163 7.24086021505376  C 15.9572301425662 7.70681003584229  15.6449422946368 7.93978494623656  15.5295315682281 7.93978494623656  C 15.4548540393754 7.93978494623656  15.3767820773931 7.91493428912784  15.2953156822811 7.86523297491039  C 14.3720298710115 7.21290322580645  13.5166327223354 6.73297491039427  12.7291242362525 6.42544802867384  C 11.9416157501697 6.1179211469534  11.0319076714189 5.96415770609319  10 5.96415770609319  C 9.42294636795655 5.96415770609319  8.84419551934827 6.03249701314218  8.26374745417515 6.16917562724014  C 7.68329938900204 6.30585424133811  7.1775288526816 6.47048984468339  6.74643584521385 6.66308243727599  C 6.3153428377461 6.85567502986858  5.93007467752885 7.04826762246117  5.59063136456212 7.24086021505376  C 5.25118805159538 7.43345280764636  4.98302783435166 7.59808841099164  4.78615071283096 7.73476702508961  C 4.58927359131025 7.87144563918757  4.48404616429056 7.93978494623656  4.47046843177189 7.93978494623656  C 4.3550577053632 7.93978494623656  4.04276985743381 7.70681003584229  3.53360488798371 7.24086021505376  C 3.02443991853361 6.77491039426523  2.76985743380855 6.48602150537634  2.76985743380855 6.3741935483871  C 2.76985743380855 6.29964157706093  2.80380176510523 6.23130227001195  2.87169042769857 6.16917562724014  C 3.76782077393075 5.34910394265233  4.85403937542431 4.71230585424134  6.13034623217923 4.25878136200717  C 7.40665308893415 3.805256869773  8.69653767820774 3.57849462365591  10 3.57849462365591  C 11.3034623217923 3.57849462365591  12.5933469110659 3.805256869773  13.8696537678208 4.25878136200717  C 15.1459606245757 4.71230585424134  16.2321792260692 5.34910394265233  17.1283095723014 6.16917562724014  C 17.1961982348948 6.23130227001195  17.2301425661915 6.29964157706093  17.2301425661914 6.3741935483871  C 17.2301425661915 6.48602150537634  16.9755600814664 6.77491039426523  16.4663951120163 7.24086021505376  Z M 19.2311608961303 4.71541218637993  C 18.7186014935506 5.18136200716846  18.4046164290563 5.41433691756272  18.2892057026477 5.41433691756272  C 18.214528173795 5.41433691756272  18.1398506449423 5.38637992831541  18.0651731160896 5.33046594982079  C 16.8499660556687 4.35507765830346  15.5889341479973 3.62043010752688  14.2820773930754 3.12652329749104  C 12.9752206381534 2.6326164874552  11.5478615071283 2.38566308243728  10 2.38566308243728  C 8.45213849287169 2.38566308243728  7.02477936184657 2.6326164874552  5.71792260692464 3.12652329749104  C 4.41106585200272 3.62043010752688  3.1500339443313 4.35507765830346  1.93482688391039 5.33046594982079  C 1.86014935505771 5.38637992831541  1.78547182620502 5.41433691756272  1.71079429735234 5.41433691756272  C 1.59538357094365 5.41433691756272  1.28139850644942 5.18136200716846  0.768839103869654 4.71541218637993  C 0.256279701289885 4.2494623655914  0 3.96057347670251  0 3.84874551971326  C 0 3.76798088410992  0.0339443312966735 3.69653524492234  0.10183299389002 3.63440860215054  C 1.37135098438561 2.47885304659498  2.88187372708758 1.584229390681  4.63340122199593 0.950537634408602  C 6.38492871690428 0.3168458781362  8.17379497623897 0  10 0  C 11.826205023761 0  13.6150712830957 0.3168458781362  15.3665987780041 0.950537634408602  C 17.1181262729124 1.584229390681  18.6286490156144 2.47885304659498  19.89816700611 3.63440860215054  C 19.9660556687033 3.69653524492234  20 3.76798088410992  20 3.84874551971326  C 20 3.96057347670251  19.7437202987101 4.2494623655914  19.2311608961303 4.71541218637993  Z " fill-rule="nonzero" fill="#ffffff" stroke="none" transform="matrix(1 0 0 1 167 4519 )" />
  </g>
</svg>