<?xml version="1.0" encoding="utf-8"?>
<svg version="1.1" xmlns:xlink="http://www.w3.org/1999/xlink" width="14px" height="22px" xmlns="http://www.w3.org/2000/svg">
  <g transform="matrix(1 0 0 1 -99 -2051 )">
    <path d="M 13.7594501718213 1.32264529058116  C 13.9198167239404 1.46960587842351  14 1.63861055444221  14 1.82965931863728  C 14 2.02070808283233  13.9198167239404 2.18971275885103  13.7594501718213 2.33667334669339  L 4.30584192439863 11  L 13.7594501718213 19.6633266533066  C 13.9198167239404 19.810287241149  14 19.9792919171677  14 20.1703406813627  C 14 20.3613894455578  13.9198167239404 20.5303941215765  13.7594501718213 20.6773547094188  L 12.5567010309278 21.7795591182365  C 12.3963344788087 21.9265197060788  12.2119129438717 22  12.0034364261168 22  C 11.794959908362 22  11.610538373425 21.9265197060788  11.4501718213058 21.7795591182365  L 0.240549828178694 11.5070140280561  C 0.0801832760595648 11.3600534402138  0 11.1910487641951  0 11  C 0 10.8089512358049  0.0801832760595648 10.6399465597862  0.240549828178694 10.4929859719439  L 11.4501718213058 0.220440881763527  C 11.610538373425 0.0734802939211749  11.794959908362 0  12.0034364261168 0  C 12.2119129438717 0  12.3963344788087 0.0734802939211749  12.5567010309278 0.220440881763527  L 13.7594501718213 1.32264529058116  Z " fill-rule="nonzero" fill="#ffffff" stroke="none" transform="matrix(1 0 0 1 99 2051 )" />
  </g>
</svg>