<?xml version="1.0" encoding="utf-8"?>
<svg version="1.1" xmlns:xlink="http://www.w3.org/1999/xlink" width="17px" height="13px" xmlns="http://www.w3.org/2000/svg">
  <g transform="matrix(1 0 0 1 -135 -2025 )">
    <path d="M 2.34319196428571 10.9095052083333  C 2.40011160714286 10.9602864583333  2.42857142857143 11.0251736111111  2.42857142857143 11.1041666666667  L 2.42857142857143 12.7291666666667  C 2.42857142857143 12.8081597222222  2.40011160714286 12.873046875  2.34319196428571 12.923828125  C 2.28627232142857 12.974609375  2.21354166666667 13  2.125 13  L 0.303571428571429 13  C 0.215029761904762 13  0.142299107142857 12.974609375  0.0853794642857143 12.923828125  C 0.0284598214285714 12.873046875  0 12.8081597222222  0 12.7291666666667  L 0 11.1041666666667  C 0 11.0251736111111  0.0284598214285714 10.9602864583333  0.0853794642857143 10.9095052083333  C 0.142299107142857 10.8587239583333  0.215029761904762 10.8333333333333  0.303571428571429 10.8333333333333  L 2.125 10.8333333333333  C 2.21354166666667 10.8333333333333  2.28627232142857 10.8587239583333  2.34319196428571 10.9095052083333  Z M 5.98604910714286 9.826171875  C 6.04296875 9.876953125  6.07142857142857 9.94184027777778  6.07142857142857 10.0208333333333  L 6.07142857142857 12.7291666666667  C 6.07142857142857 12.8081597222222  6.04296875 12.873046875  5.98604910714286 12.923828125  C 5.92912946428571 12.974609375  5.85639880952381 13  5.76785714285714 13  L 3.94642857142857 13  C 3.85788690476191 13  3.78515625 12.974609375  3.72823660714286 12.923828125  C 3.67131696428571 12.873046875  3.64285714285714 12.8081597222222  3.64285714285714 12.7291666666667  L 3.64285714285714 10.0208333333333  C 3.64285714285714 9.94184027777778  3.67131696428571 9.876953125  3.72823660714286 9.826171875  C 3.78515625 9.775390625  3.85788690476191 9.75  3.94642857142857 9.75  L 5.76785714285714 9.75  C 5.85639880952381 9.75  5.92912946428571 9.775390625  5.98604910714286 9.826171875  Z M 9.62890625 7.65950520833333  C 9.68582589285714 7.71028645833333  9.71428571428571 7.77517361111111  9.71428571428571 7.85416666666667  L 9.71428571428571 12.7291666666667  C 9.71428571428571 12.8081597222222  9.68582589285714 12.873046875  9.62890625 12.923828125  C 9.57198660714286 12.974609375  9.49925595238095 13  9.41071428571429 13  L 7.58928571428571 13  C 7.50074404761905 13  7.42801339285714 12.974609375  7.37109375 12.923828125  C 7.31417410714286 12.873046875  7.28571428571429 12.8081597222222  7.28571428571429 12.7291666666667  L 7.28571428571429 7.85416666666667  C 7.28571428571429 7.77517361111111  7.31417410714286 7.71028645833333  7.37109375 7.65950520833333  C 7.42801339285714 7.60872395833333  7.50074404761905 7.58333333333333  7.58928571428571 7.58333333333333  L 9.41071428571429 7.58333333333333  C 9.49925595238095 7.58333333333333  9.57198660714286 7.60872395833333  9.62890625 7.65950520833333  Z M 13.2717633928571 4.40950520833333  C 13.3286830357143 4.46028645833333  13.3571428571429 4.52517361111111  13.3571428571429 4.60416666666667  L 13.3571428571429 12.7291666666667  C 13.3571428571429 12.8081597222222  13.3286830357143 12.873046875  13.2717633928571 12.923828125  C 13.21484375 12.974609375  13.1421130952381 13  13.0535714285714 13  L 11.2321428571429 13  C 11.1436011904762 13  11.0708705357143 12.974609375  11.0139508928571 12.923828125  C 10.95703125 12.873046875  10.9285714285714 12.8081597222222  10.9285714285714 12.7291666666667  L 10.9285714285714 4.60416666666667  C 10.9285714285714 4.52517361111111  10.95703125 4.46028645833333  11.0139508928571 4.40950520833333  C 11.0708705357143 4.35872395833333  11.1436011904762 4.33333333333333  11.2321428571429 4.33333333333333  L 13.0535714285714 4.33333333333333  C 13.1421130952381 4.33333333333333  13.21484375 4.35872395833333  13.2717633928571 4.40950520833333  Z M 16.9146205357143 0.076171875  C 16.9715401785714 0.126953125  17 0.191840277777776  17 0.270833333333334  L 17 12.7291666666667  C 17 12.8081597222222  16.9715401785714 12.873046875  16.9146205357143 12.923828125  C 16.8577008928571 12.974609375  16.7849702380952 13  16.6964285714286 13  L 14.875 13  C 14.7864583333333 13  14.7137276785714 12.974609375  14.6568080357143 12.923828125  C 14.5998883928571 12.873046875  14.5714285714286 12.8081597222222  14.5714285714286 12.7291666666667  L 14.5714285714286 0.270833333333334  C 14.5714285714286 0.191840277777776  14.5998883928571 0.126953125  14.6568080357143 0.076171875  C 14.7137276785714 0.025390625  14.7864583333333 0  14.875 0  L 16.6964285714286 0  C 16.7849702380952 0  16.8577008928571 0.025390625  16.9146205357143 0.076171875  Z " fill-rule="nonzero" fill="#ffffff" stroke="none" transform="matrix(1 0 0 1 135 2025 )" />
  </g>
</svg>