<?xml version="1.0" encoding="utf-8"?>
<svg version="1.1" xmlns:xlink="http://www.w3.org/1999/xlink" width="19px" height="13px" xmlns="http://www.w3.org/2000/svg">
  <g transform="matrix(1 0 0 1 -162 -2025 )">
    <path d="M 10.3996945010183 12.3150537634409  C 9.92888662593347 12.7716845878136  9.62898845892736 13  9.5 13  C 9.37101154107264 13  9.07111337406653 12.7716845878136  8.60030549898167 12.3150537634409  C 8.12949762389681 11.8584229390681  7.89409368635438 11.5679808841099  7.89409368635438 11.4437275985663  C 7.89409368635438 11.2449223416965  8.09563815342838 11.0771804062127  8.49872708757638 10.9405017921147  C 8.90181602172437 10.8038231780167  9.23557365919891 10.7354838709677  9.5 10.7354838709677  C 9.76442634080109 10.7354838709677  10.0981839782756 10.8038231780167  10.5012729124236 10.9405017921147  C 10.9043618465716 11.0771804062127  11.1059063136456 11.2449223416965  11.1059063136456 11.4437275985663  C 11.1059063136456 11.5679808841099  10.8705023761032 11.8584229390681  10.3996945010183 12.3150537634409  Z M 13.0165478615071 9.77562724014337  C 12.5296164290563 10.2415770609319  12.2281059063136 10.4745519713262  12.112016293279 10.4745519713262  C 12.0991174473863 10.4745519713262  11.9701289884589 10.3968936678614  11.7250509164969 10.2415770609319  C 11.479972844535 10.0862604540024  11.1526646300068 9.93094384707288  10.7431262729124 9.77562724014337  C 10.3335879158181 9.62031063321386  9.91921249151392 9.5426523297491  9.5 9.5426523297491  C 9.08078750848608 9.5426523297491  8.66641208418194 9.62031063321386  8.25687372708758 9.77562724014337  C 7.84733536999321 9.93094384707288  7.52163951120163 10.0862604540024  7.27978615071283 10.2415770609319  C 7.03793279022403 10.3968936678614  6.90733197556008 10.4745519713262  6.88798370672098 10.4745519713262  C 6.77189409368635 10.4745519713262  6.47038357094365 10.2415770609319  5.98345213849287 9.77562724014337  C 5.49652070604209 9.30967741935484  5.2530549898167 9.02078853046595  5.2530549898167 8.9089605734767  C 5.2530549898167 8.82819593787336  5.28530210454854 8.75675029868578  5.34979633401222 8.69462365591398  C 5.85285132382892 8.21624850657109  6.48489477257298 7.84038231780167  7.2459266802444 7.56702508960574  C 8.00695858791582 7.2936678614098  8.75831636116769 7.15698924731183  9.5 7.15698924731183  C 10.2416836388323 7.15698924731183  10.9930414120842 7.2936678614098  11.7540733197556 7.56702508960574  C 12.515105227427 7.84038231780167  13.1471486761711 8.21624850657109  13.6502036659878 8.69462365591398  C 13.7146978954515 8.75675029868578  13.7469450101833 8.82819593787336  13.7469450101833 8.9089605734767  C 13.7469450101833 9.02078853046595  13.5034792939579 9.30967741935484  13.0165478615071 9.77562724014337  Z M 15.6430753564155 7.24086021505376  C 15.1593686354379 7.70681003584229  14.862695179905 7.93978494623656  14.7530549898167 7.93978494623656  C 14.6821113374067 7.93978494623656  14.6079429735234 7.91493428912784  14.530549898167 7.86523297491039  C 13.653428377461 7.21290322580645  12.8408010862186 6.73297491039427  12.0926680244399 6.42544802867384  C 11.3445349626612 6.1179211469534  10.4803122878479 5.96415770609319  9.5 5.96415770609319  C 8.95179904955872 5.96415770609319  8.40198574338086 6.03249701314218  7.8505600814664 6.16917562724014  C 7.29913441955193 6.30585424133811  6.81865241004752 6.47048984468339  6.40911405295316 6.66308243727599  C 5.99957569585879 6.85567502986858  5.63357094365241 7.04826762246117  5.31109979633401 7.24086021505376  C 4.98862864901562 7.43345280764636  4.73387644263408 7.59808841099164  4.54684317718941 7.73476702508961  C 4.35980991174474 7.87144563918757  4.25984385607604 7.93978494623656  4.2469450101833 7.93978494623656  C 4.13730482009504 7.93978494623656  3.84063136456212 7.70681003584229  3.35692464358452 7.24086021505376  C 2.87321792260692 6.77491039426523  2.63136456211813 6.48602150537634  2.63136456211813 6.3741935483871  C 2.63136456211813 6.29964157706093  2.66361167684997 6.23130227001195  2.72810590631365 6.16917562724014  C 3.57942973523422 5.34910394265233  4.61133740665309 4.71230585424134  5.82382892057026 4.25878136200717  C 7.03632043448744 3.805256869773  8.26171079429735 3.57849462365591  9.5 3.57849462365591  C 10.7382892057026 3.57849462365591  11.9636795655126 3.805256869773  13.1761710794297 4.25878136200717  C 14.3886625933469 4.71230585424134  15.4205702647658 5.34910394265233  16.2718940936864 6.16917562724014  C 16.33638832315 6.23130227001195  16.3686354378819 6.29964157706093  16.3686354378819 6.3741935483871  C 16.3686354378819 6.48602150537634  16.1267820773931 6.77491039426523  15.6430753564155 7.24086021505376  Z M 18.2696028513238 4.71541218637993  C 17.782671418873 5.18136200716846  17.4843856076035 5.41433691756272  17.3747454175153 5.41433691756272  C 17.3038017651052 5.41433691756272  17.2328581126952 5.38637992831541  17.1619144602851 5.33046594982079  C 16.0074677528853 4.35507765830346  14.8094874405974 3.62043010752688  13.5679735234216 3.12652329749104  C 12.3264596062458 2.6326164874552  10.9704684317719 2.38566308243728  9.5 2.38566308243728  C 8.0295315682281 2.38566308243728  6.67354039375424 2.6326164874552  5.43202647657841 3.12652329749104  C 4.19051255940258 3.62043010752688  2.99253224711473 4.35507765830346  1.83808553971487 5.33046594982079  C 1.76714188730482 5.38637992831541  1.69619823489477 5.41433691756272  1.62525458248473 5.41433691756272  C 1.51561439239647 5.41433691756272  1.21732858112695 5.18136200716846  0.730397148676171 4.71541218637993  C 0.24346571622539 4.2494623655914  0 3.96057347670251  0 3.84874551971326  C 0 3.76798088410992  0.0322471147318398 3.69653524492234  0.0967413441955194 3.63440860215054  C 1.30278343516633 2.47885304659498  2.7377800407332 1.584229390681  4.40173116089613 0.950537634408602  C 6.06568228105906 0.3168458781362  7.76510522742702 0  9.5 0  C 11.234894772573 0  12.9343177189409 0.3168458781362  14.5982688391039 0.950537634408602  C 16.2622199592668 1.584229390681  17.6972165648337 2.47885304659498  18.9032586558045 3.63440860215054  C 18.9677528852682 3.69653524492234  19 3.76798088410992  19 3.84874551971326  C 19 3.96057347670251  18.7565342837746 4.2494623655914  18.2696028513238 4.71541218637993  Z " fill-rule="nonzero" fill="#ffffff" stroke="none" transform="matrix(1 0 0 1 162 2025 )" />
  </g>
</svg>