<svg t="1608296077418" class="icon" viewBox="0 0 1037 1024" version="1.1" xmlns="http://www.w3.org/2000/svg" p-id="1227" width="32" height="32"><path d="M815.37329937 992H208.62670063A176.82393844 176.82393844 0 0 1 32 815.37329937V208.62670063A176.82393844 176.82393844 0 0 1 208.62670063 32.05635406h388.05183375a30.99455531 30.99455531 0 0 1-1e-8 61.98911063H208.62670063A114.76438594 114.76438594 0 0 0 93.98911062 208.68305469v606.69024469a114.76438594 114.76438594 0 0 0 114.63759 114.63759h606.74659875a114.76438594 114.76438594 0 0 0 114.63759-114.63759V438.09911844a30.99455531 30.99455531 0 1 1 61.98911063 0v377.27418094a176.82393844 176.82393844 0 0 1-176.62670063 176.62670062z" fill="#ffffff" p-id="1228"></path><path d="M988.04115031 167.30532312L755.86375344 42.28455688a30.99455531 30.99455531 0 1 0-29.38847438 54.57859499l166.24352438 89.53199907c-99.64749563 20.93541375-188.22148219 62.72170969-263.66504719 124.47131719-66.56785219 54.47997562-122.86523531 124.35860906-167.3424225 207.71987531-75.20406187 140.8843425-90.51819 270.79379531-91.13808094 276.2601075a30.99455531 30.99455531 0 0 0 61.59463406 6.97377469c0.14088469-1.23978188 15.00418219-125.17573875 85.1927625-255.8318775 88.36266-164.48247 220.52626219-265.28521781 393.06731625-299.95685438l-89.41929281 166.06037437a30.99455531 30.99455531 0 1 0 54.578595 29.38847438l125.04894281-232.17739688a30.99455531 30.99455531 0 0 0-12.59506031-41.9976225z" fill="#ffffff" p-id="1229"></path></svg>