<?xml version="1.0" encoding="utf-8"?>
<svg version="1.1" xmlns:xlink="http://www.w3.org/1999/xlink" width="19px" height="19px" xmlns="http://www.w3.org/2000/svg">
  <g transform="matrix(1 0 0 1 -1010 -1187 )">
    <path d="M 1019.5 1188  C 1024.26 1188  1028 1191.74  1028 1196.5  C 1028 1201.26  1024.26 1205  1019.5 1205  C 1014.74 1205  1011 1201.26  1011 1196.5  C 1011 1191.74  1014.74 1188  1019.5 1188  Z " fill-rule="nonzero" fill="#ffffff" stroke="none" />
    <path d="M 1019.5 1188  C 1024.26 1188  1028 1191.74  1028 1196.5  C 1028 1201.26  1024.26 1205  1019.5 1205  C 1014.74 1205  1011 1201.26  1011 1196.5  C 1011 1191.74  1014.74 1188  1019.5 1188  Z " stroke-width="2" stroke="#d7d7d7" fill="none" />
  </g>
</svg>