<?xml version="1.0" encoding="utf-8"?>
<svg version="1.1" xmlns:xlink="http://www.w3.org/1999/xlink" width="141px" height="43px" xmlns="http://www.w3.org/2000/svg">
  <g transform="matrix(1 0 0 1 -444 -1056 )">
    <path d="M 445 1066  A 9 9 0 0 1 454 1057 L 575 1057  A 9 9 0 0 1 584 1066 L 584 1089  A 9 9 0 0 1 575 1098 L 454 1098  A 9 9 0 0 1 445 1089 L 445 1066  Z " fill-rule="nonzero" fill="#ffffff" stroke="none" />
    <path d="M 444.5 1066  A 9.5 9.5 0 0 1 454 1056.5 L 575 1056.5  A 9.5 9.5 0 0 1 584.5 1066 L 584.5 1089  A 9.5 9.5 0 0 1 575 1098.5 L 454 1098.5  A 9.5 9.5 0 0 1 444.5 1089 L 444.5 1066  Z " stroke-width="1" stroke-dasharray="3,1" stroke="#797979" fill="none" stroke-dashoffset="0.5" />
  </g>
</svg>