<?xml version="1.0" encoding="utf-8"?>
<svg version="1.1" xmlns:xlink="http://www.w3.org/1999/xlink" width="24px" height="13px" xmlns="http://www.w3.org/2000/svg">
  <g transform="matrix(1 0 0 1 -598 -1853 )">
    <path d="M 2.66666666666667 2.6  L 20 2.6  L 20 10.4  L 2.66666666666667 10.4  L 2.66666666666667 2.6  Z M 21.3333333333333 11.375  L 21.3333333333333 8.45  L 22.6666666666667 8.45  L 22.6666666666667 4.55  L 21.3333333333333 4.55  L 21.3333333333333 1.625  C 21.3333333333333 1.53020833333333  21.3020833333333 1.45234375  21.2395833333333 1.39140625  C 21.1770833333333 1.33046875  21.0972222222222 1.3  21 1.3  L 1.66666666666667 1.3  C 1.56944444444444 1.3  1.48958333333333 1.33046875  1.42708333333333 1.39140625  C 1.36458333333333 1.45234375  1.33333333333333 1.53020833333333  1.33333333333333 1.625  L 1.33333333333333 11.375  C 1.33333333333333 11.4697916666667  1.36458333333333 11.54765625  1.42708333333333 11.60859375  C 1.48958333333333 11.66953125  1.56944444444444 11.7  1.66666666666667 11.7  L 21 11.7  C 21.0972222222222 11.7  21.1770833333333 11.66953125  21.2395833333333 11.60859375  C 21.3020833333333 11.54765625  21.3333333333333 11.4697916666667  21.3333333333333 11.375  Z M 23.609375 3.630859375  C 23.8697916666667 3.884765625  24 4.19114583333333  24 4.55  L 24 8.45  C 24 8.80885416666666  23.8697916666667 9.115234375  23.609375 9.369140625  C 23.3489583333333 9.623046875  23.0347222222222 9.75  22.6666666666667 9.75  L 22.6666666666667 11.375  C 22.6666666666667 11.821875  22.5034722222222 12.2044270833333  22.1770833333333 12.52265625  C 21.8506944444444 12.8408854166667  21.4583333333333 13  21 13  L 1.66666666666667 13  C 1.20833333333333 13  0.815972222222222 12.8408854166667  0.489583333333333 12.52265625  C 0.163194444444444 12.2044270833333  0 11.821875  0 11.375  L 0 1.625  C 0 1.178125  0.163194444444444 0.795572916666666  0.489583333333333 0.47734375  C 0.815972222222222 0.159114583333332  1.20833333333333 0  1.66666666666667 0  L 21 0  C 21.4583333333333 0  21.8506944444444 0.159114583333332  22.1770833333333 0.47734375  C 22.5034722222222 0.795572916666666  22.6666666666667 1.178125  22.6666666666667 1.625  L 22.6666666666667 3.25  C 23.0347222222222 3.25  23.3489583333333 3.376953125  23.609375 3.630859375  Z " fill-rule="nonzero" fill="#000000" stroke="none" transform="matrix(1 0 0 1 598 1853 )" />
  </g>
</svg>