<?xml version="1.0" encoding="utf-8"?>
<svg version="1.1" xmlns:xlink="http://www.w3.org/1999/xlink" width="36px" height="36px" xmlns="http://www.w3.org/2000/svg">
  <g transform="matrix(1 0 0 1 -419 -2534 )">
    <path d="M 437 2534  C 447.08 2534  455 2541.92  455 2552  C 455 2562.08  447.08 2570  437 2570  C 426.92 2570  419 2562.08  419 2552  C 419 2541.92  426.92 2534  437 2534  Z " fill-rule="nonzero" fill="#ffffff" stroke="none" />
    <path d="M 437 2534.5  C 446.8 2534.5  454.5 2542.2  454.5 2552  C 454.5 2561.8  446.8 2569.5  437 2569.5  C 427.2 2569.5  419.5 2561.8  419.5 2552  C 419.5 2542.2  427.2 2534.5  437 2534.5  Z " stroke-width="1" stroke="#797979" fill="none" />
  </g>
</svg>