<?xml version="1.0" encoding="utf-8"?>
<svg version="1.1" xmlns:xlink="http://www.w3.org/1999/xlink" width="16px" height="24px" xmlns="http://www.w3.org/2000/svg">
  <g transform="matrix(1 0 0 1 -722 -1885 )">
    <path d="M 15.7250859106529 1.44288577154308  C 15.9083619702176 1.60320641282565  16 1.7875751503006  16 1.99599198396794  C 16 2.20440881763527  15.9083619702176 2.38877755511022  15.7250859106529 2.54909819639279  L 4.92096219931272 12  L 15.7250859106529 21.4509018036072  C 15.9083619702176 21.6112224448898  16 21.7955911823647  16 22.0040080160321  C 16 22.2124248496994  15.9083619702176 22.3967935871743  15.7250859106529 22.5571142284569  L 14.3505154639175 23.7595190380762  C 14.1672394043528 23.9198396793587  13.9564719358534 24  13.7182130584192 24  C 13.4799541809851 24  13.2691867124857 23.9198396793587  13.085910652921 23.7595190380762  L 0.274914089347079 12.5531062124248  C 0.0916380297823597 12.3927855711423  0 12.2084168336673  0 12  C 0 11.7915831663327  0.0916380297823597 11.6072144288577  0.274914089347079 11.4468937875752  L 13.085910652921 0.240480961923848  C 13.2691867124857 0.0801603206412818  13.4799541809851 0  13.7182130584192 0  C 13.9564719358534 0  14.1672394043528 0.0801603206412818  14.3505154639175 0.240480961923848  L 15.7250859106529 1.44288577154308  Z " fill-rule="nonzero" fill="#000000" stroke="none" transform="matrix(1 0 0 1 722 1885 )" />
  </g>
</svg>