<?xml version="1.0" encoding="utf-8"?>
<svg version="1.1" xmlns:xlink="http://www.w3.org/1999/xlink" width="18px" height="18px" xmlns="http://www.w3.org/2000/svg">
  <g transform="matrix(1 0 0 1 -961 -2383 )">
    <path d="M 970 2384  C 974.48 2384  978 2387.52  978 2392  C 978 2396.48  974.48 2400  970 2400  C 965.52 2400  962 2396.48  962 2392  C 962 2387.52  965.52 2384  970 2384  Z " fill-rule="nonzero" fill="#ffffff" stroke="none" fill-opacity="0.2" />
    <path d="M 970 2384  C 974.48 2384  978 2387.52  978 2392  C 978 2396.48  974.48 2400  970 2400  C 965.52 2400  962 2396.48  962 2392  C 962 2387.52  965.52 2384  970 2384  Z " stroke-width="2" stroke="#02a7f0" fill="none" />
  </g>
</svg>