<?xml version="1.0" encoding="utf-8"?>
<svg version="1.1" xmlns:xlink="http://www.w3.org/1999/xlink" width="20px" height="20px" xmlns="http://www.w3.org/2000/svg">
  <g transform="matrix(1 0 0 1 -785 -2520 )">
    <path d="M 795 2520  C 800.6 2520  805 2524.4  805 2530  C 805 2535.6  800.6 2540  795 2540  C 789.4 2540  785 2535.6  785 2530  C 785 2524.4  789.4 2520  795 2520  Z " fill-rule="nonzero" fill="#ffffff" stroke="none" fill-opacity="0" />
    <path d="M 795 2520.5  C 800.32 2520.5  804.5 2524.68  804.5 2530  C 804.5 2535.32  800.32 2539.5  795 2539.5  C 789.68 2539.5  785.5 2535.32  785.5 2530  C 785.5 2524.68  789.68 2520.5  795 2520.5  Z " stroke-width="1" stroke="#e5e5ea" fill="none" />
  </g>
</svg>