<?xml version="1.0" encoding="utf-8"?>
<svg version="1.1" xmlns:xlink="http://www.w3.org/1999/xlink" width="40px" height="40px" xmlns="http://www.w3.org/2000/svg">
  <defs>
    <filter x="559px" y="4862px" width="40px" height="40px" filterUnits="userSpaceOnUse" id="filter189">
      <feOffset dx="1" dy="1" in="SourceAlpha" result="shadowOffsetInner" />
      <feGaussianBlur stdDeviation="2.5" in="shadowOffsetInner" result="shadowGaussian" />
      <feComposite in2="shadowGaussian" operator="atop" in="SourceAlpha" result="shadowComposite" />
      <feColorMatrix type="matrix" values="0 0 0 0 0  0 0 0 0 0  0 0 0 0 0  0 0 0 0.698039215686274 0  " in="shadowComposite" />
    </filter>
    <g id="widget190">
      <path d="M 578 4866  C 586.4 4866  593 4872.6  593 4881  C 593 4889.4  586.4 4896  578 4896  C 569.6 4896  563 4889.4  563 4881  C 563 4872.6  569.6 4866  578 4866  Z " fill-rule="nonzero" fill="#009dd9" stroke="none" />
      <path d="M 578 4866.5  C 586.12 4866.5  592.5 4872.88  592.5 4881  C 592.5 4889.12  586.12 4895.5  578 4895.5  C 569.88 4895.5  563.5 4889.12  563.5 4881  C 563.5 4872.88  569.88 4866.5  578 4866.5  Z " stroke-width="1" stroke="#ffffff" fill="none" />
    </g>
  </defs>
  <g transform="matrix(1 0 0 1 -559 -4862 )">
    <use xlink:href="#widget190" filter="url(#filter189)" />
    <use xlink:href="#widget190" />
  </g>
</svg>