<?xml version="1.0" encoding="utf-8"?>
<svg version="1.1" xmlns:xlink="http://www.w3.org/1999/xlink" width="40px" height="50px" xmlns="http://www.w3.org/2000/svg">
  <defs>
    <filter x="415px" y="303px" width="40px" height="50px" filterUnits="userSpaceOnUse" id="filter191">
      <feOffset dx="1" dy="1" in="SourceAlpha" result="shadowOffsetInner" />
      <feGaussianBlur stdDeviation="2.5" in="shadowOffsetInner" result="shadowGaussian" />
      <feComposite in2="shadowGaussian" operator="atop" in="SourceAlpha" result="shadowComposite" />
      <feColorMatrix type="matrix" values="0 0 0 0 0  0 0 0 0 0  0 0 0 0 0  0 0 0 0.698039215686274 0  " in="shadowComposite" />
    </filter>
    <g id="widget192">
      <path d="M 434 346.036928468354  C 428.2 336.40734059591  419.5 330.629587872444  419.5 321  C 419.5 315.985714285714  422.4 307.5  434 307.5  C 445.6 307.5  448.5 315.985714285714  448.5 321  C 448.5 330.629587872444  439.8 336.40734059591  434 346.036928468354  Z " fill-rule="nonzero" fill="#009dd9" stroke="none" />
      <path d="M 434 347  C 428 337  419 331  419 321  C 419 315.8  422 307  434 307  C 446 307  449 315.8  449 321  C 449 331  440 337  434 347  Z M 434 345.073856936707  C 439.6 335.81468119182  448 330.259175744887  448 321  C 448 316.171428571429  445.2 308  434 308  C 422.8 308  420 316.171428571429  420 321  C 420 330.259175744887  428.4 335.81468119182  434 345.073856936707  Z " fill-rule="nonzero" fill="#ffffff" stroke="none" />
    </g>
  </defs>
  <g transform="matrix(1 0 0 1 -415 -303 )">
    <use xlink:href="#widget192" filter="url(#filter191)" />
    <use xlink:href="#widget192" />
  </g>
</svg>